<svg width="325" height="219" viewBox="0 0 325 219" fill="none" xmlns="http://www.w3.org/2000/svg">
<path d="M13.5 218.453V213.953C13.5 213.953 10 214.015 7 212.015C5.65473 211.118 4.5 209.515 4.5 208.015C4.5 152.703 4.50027 -20.9849 4.5 45.0151C4.49999 46.9648 4.27591 41.6453 5.5 40.0151C6.9691 38.0587 8.55337 37.0151 11 37.0151C38.5 37.0151 61 37.5151 95 37.0151C97.4696 36.9788 99.398 36.8121 101.5 35.5151C103.615 34.2101 104.793 32.6365 105.5 30.5151C108.5 21.5151 109.5 18.5151 112 9.51511C112.45 7.89668 112.728 6.61247 114 5.51511C115.322 4.37413 116.754 4.01511 118.5 4.01511C147 4.01507 163.5 4.01511 194 4.01511C196.226 4.01511 197.5 4.51514 199 5.51514C200.172 6.29619 200.977 7.20776 201.5 8.51511C204.5 16.0152 205.5 21.5152 207.5 28.5151C208.23 31.0688 208.95 32.8266 211 34.5151C213.296 36.406 215.526 37.0151 218.5 37.0151C226 37.0151 229 37.0151 236.5 37.0151C238.11 37.0151 239.615 36.8372 241 36.0151C242.548 35.0961 243 34.5151 243.5 32.5151C243.882 30.9879 244 30.0151 244 28.5151C244 27.6419 244.383 26.6326 245 26.0151C245.5 25.5151 246.361 25.0151 247.5 25.0151C267.5 25.0151 276.5 25.0151 296 25.0151C297.051 25.0151 297.697 25.3359 298.5 26.0151C299.5 26.8612 300 27.7053 300 29.0151C300 31.0151 300.298 32.3688 301.5 34.0151C302.745 35.7208 303.888 37.0151 306 37.0151C309 37.0151 310 37.0151 312.5 37.0151C314.683 37.0151 315.92 38.0084 317.5 39.5151C318.833 40.7865 320 41.673 320 43.5151C320 101.515 320 150.015 320 207.015C320 208.961 319.5 209.515 318.5 211.015C317.391 212.678 315.499 213.515 313.5 213.515C309.5 213.515 302.5 213.578 302.5 213.578V218.121V218.14C302.5 218.14 310 218.14 315 218.015C317.712 217.947 319.673 216.52 321.5 214.515C323.503 212.317 323.977 209.989 324 207.015C324.492 142.015 324 110.515 324 43.0151C324 40.1321 322.538 38.5537 320.5 36.5151C318.461 34.4765 316.883 33.0151 314 33.0151C311 33.0151 310 33.0151 307.5 33.0151C306.361 33.0151 305.732 32.3874 305 31.5151C304.086 30.426 304 29.5151 304 28.0151C304 25.832 303.112 24.4871 301.5 23.0151C300.08 21.7184 298.923 21.0151 297 21.0151C274 21.0151 266.5 21.0151 246.5 21.0151C243.5 21.0151 242.5 22.0151 241 24.0151C240.108 25.2048 240.205 26.5423 240 28.0151C239.892 28.7887 239.669 29.2527 239.5 30.0151C239.311 30.8676 238.5 32.0151 238.5 32.0151C238.5 32.0151 237.552 33.0151 236.5 33.0151C229.5 33.0151 225 33.0151 218.5 33.0151C216.754 33.0151 215.854 32.1187 214.5 31.0151C213.318 30.0514 213.047 28.9385 212.5 27.5151C210 21.0152 208.5 15.5152 206 7.51514C205.208 4.98018 203.654 3.06843 201.5 1.51514C199.041 -0.257717 197.031 0.0151116 194 0.0151116C164 0.0151116 146.5 0.0151342 118.5 0.0151116C115.78 0.0151094 113.638 -0.165594 111.5 1.51518C109.75 2.89106 108.664 4.89019 108 7.01518C105.5 15.0152 104 19.5152 101.5 27.0152C100.832 29.0189 101.206 29.7695 99.5 31.0151C97.8537 32.2174 96.5386 33.0151 94.5 33.0151C61.5 33.0151 44.5 33.0151 11 33.0151C7.24406 33.0151 4.3138 34.0565 2 37.0151C0.0980719 39.4471 -1.84887e-05 41.9277 2.61248e-09 45.0151C0.000395301 111.015 0.000171664 151.765 2.61248e-09 207.765C-8.22919e-06 210.451 0.851318 212.395 2.5 214.515C6 219.015 13.5 218.453 13.5 218.453Z" fill="black"/>
<path d="M26 218.453C26 218.453 206.218 218.235 302.5 218.121V213.578H301H298.5H296H291.5C289.625 213.578 25 213.953 25 213.953H20.5H16.5H15H13.5V218.453H16.5H20.8125H26Z" fill="black"/>
<circle cx="158.5" cy="124.5" r="48" stroke="black" stroke-width="3"/>
<circle cx="158.5" cy="124.5" r="39" stroke="black" stroke-width="3"/>
</svg>
